<mxfile host="app.diagrams.net" agent="Mozilla/5.0 (Windows NT 10.0; Win64; x64) AppleWebKit/537.36 (KHTML, like Gecko) Chrome/136.0.0.0 Safari/537.36" version="27.1.0">
  <diagram name="Page-1" id="8QMNzHHoJmfJ2i7kZxd4">
    <mxGraphModel dx="1042" dy="527" grid="1" gridSize="10" guides="1" tooltips="1" connect="1" arrows="1" fold="1" page="1" pageScale="1" pageWidth="1169" pageHeight="827" math="0" shadow="0">
      <root>
        <mxCell id="0" />
        <mxCell id="1" parent="0" />
        <mxCell id="5EYDZL1ktErVGbTyCt4M-26" value="erp_cust_az12" style="swimlane;fontStyle=0;childLayout=stackLayout;horizontal=1;startSize=30;horizontalStack=0;resizeParent=1;resizeParentMax=0;resizeLast=0;collapsible=1;marginBottom=0;whiteSpace=wrap;html=1;rounded=1;fillColor=#fff2cc;strokeColor=#d6b656;fontSize=18;" parent="1" vertex="1">
          <mxGeometry x="782.5" y="475" width="170" height="80" as="geometry" />
        </mxCell>
        <mxCell id="5EYDZL1ktErVGbTyCt4M-27" value="cid" style="text;strokeColor=none;fillColor=none;align=left;verticalAlign=middle;spacingLeft=4;spacingRight=4;overflow=hidden;points=[[0,0.5],[1,0.5]];portConstraint=eastwest;rotatable=0;whiteSpace=wrap;html=1;fontSize=16;" parent="5EYDZL1ktErVGbTyCt4M-26" vertex="1">
          <mxGeometry y="30" width="170" height="50" as="geometry" />
        </mxCell>
        <mxCell id="5EYDZL1ktErVGbTyCt4M-1" value="&lt;b&gt;&lt;font style=&quot;font-size: 18px;&quot;&gt;Integration Model&lt;/font&gt;&lt;/b&gt; (How tables are created)" style="text;html=1;align=center;verticalAlign=middle;whiteSpace=wrap;rounded=0;" parent="1" vertex="1">
          <mxGeometry x="40" y="40" width="320" height="40" as="geometry" />
        </mxCell>
        <mxCell id="5EYDZL1ktErVGbTyCt4M-3" value="crm_cust_info" style="swimlane;fontStyle=0;childLayout=stackLayout;horizontal=1;startSize=30;horizontalStack=0;resizeParent=1;resizeParentMax=0;resizeLast=0;collapsible=1;marginBottom=0;whiteSpace=wrap;html=1;rounded=1;fillColor=#dae8fc;strokeColor=#6c8ebf;fontSize=18;" parent="1" vertex="1">
          <mxGeometry x="445" y="340" width="140" height="90" as="geometry" />
        </mxCell>
        <mxCell id="5EYDZL1ktErVGbTyCt4M-4" value="cst_id" style="text;strokeColor=none;fillColor=none;align=left;verticalAlign=middle;spacingLeft=4;spacingRight=4;overflow=hidden;points=[[0,0.5],[1,0.5]];portConstraint=eastwest;rotatable=0;whiteSpace=wrap;html=1;fontSize=16;" parent="5EYDZL1ktErVGbTyCt4M-3" vertex="1">
          <mxGeometry y="30" width="140" height="30" as="geometry" />
        </mxCell>
        <mxCell id="5EYDZL1ktErVGbTyCt4M-21" value="cst_key" style="text;strokeColor=none;fillColor=none;align=left;verticalAlign=middle;spacingLeft=4;spacingRight=4;overflow=hidden;points=[[0,0.5],[1,0.5]];portConstraint=eastwest;rotatable=0;whiteSpace=wrap;html=1;fontSize=16;" parent="5EYDZL1ktErVGbTyCt4M-3" vertex="1">
          <mxGeometry y="60" width="140" height="30" as="geometry" />
        </mxCell>
        <mxCell id="5EYDZL1ktErVGbTyCt4M-7" value="Customer Information" style="text;html=1;align=center;verticalAlign=middle;whiteSpace=wrap;rounded=0;" parent="1" vertex="1">
          <mxGeometry x="430" y="310" width="170" height="30" as="geometry" />
        </mxCell>
        <mxCell id="5EYDZL1ktErVGbTyCt4M-8" value="crm_prd_info" style="swimlane;fontStyle=0;childLayout=stackLayout;horizontal=1;startSize=30;horizontalStack=0;resizeParent=1;resizeParentMax=0;resizeLast=0;collapsible=1;marginBottom=0;whiteSpace=wrap;html=1;rounded=1;fillColor=#dae8fc;strokeColor=#6c8ebf;fontSize=18;" parent="1" vertex="1">
          <mxGeometry x="445" y="190" width="140" height="60" as="geometry" />
        </mxCell>
        <mxCell id="5EYDZL1ktErVGbTyCt4M-9" value="prd_key" style="text;strokeColor=none;fillColor=none;align=left;verticalAlign=middle;spacingLeft=4;spacingRight=4;overflow=hidden;points=[[0,0.5],[1,0.5]];portConstraint=eastwest;rotatable=0;whiteSpace=wrap;html=1;fontSize=16;" parent="5EYDZL1ktErVGbTyCt4M-8" vertex="1">
          <mxGeometry y="30" width="140" height="30" as="geometry" />
        </mxCell>
        <mxCell id="5EYDZL1ktErVGbTyCt4M-10" value="Current &amp;amp; History Product Information" style="text;html=1;align=center;verticalAlign=middle;whiteSpace=wrap;rounded=0;" parent="1" vertex="1">
          <mxGeometry x="407.5" y="160" width="215" height="30" as="geometry" />
        </mxCell>
        <mxCell id="5EYDZL1ktErVGbTyCt4M-11" value="crm_sales_details" style="swimlane;fontStyle=0;childLayout=stackLayout;horizontal=1;startSize=30;horizontalStack=0;resizeParent=1;resizeParentMax=0;resizeLast=0;collapsible=1;marginBottom=0;whiteSpace=wrap;html=1;rounded=1;fillColor=#dae8fc;strokeColor=#6c8ebf;fontSize=18;" parent="1" vertex="1">
          <mxGeometry x="100" y="245" width="170" height="130" as="geometry" />
        </mxCell>
        <mxCell id="5EYDZL1ktErVGbTyCt4M-12" value="prd_key" style="text;strokeColor=none;fillColor=none;align=left;verticalAlign=middle;spacingLeft=4;spacingRight=4;overflow=hidden;points=[[0,0.5],[1,0.5]];portConstraint=eastwest;rotatable=0;whiteSpace=wrap;html=1;fontSize=16;" parent="5EYDZL1ktErVGbTyCt4M-11" vertex="1">
          <mxGeometry y="30" width="170" height="50" as="geometry" />
        </mxCell>
        <mxCell id="5EYDZL1ktErVGbTyCt4M-14" value="cst_id" style="text;strokeColor=none;fillColor=none;align=left;verticalAlign=middle;spacingLeft=4;spacingRight=4;overflow=hidden;points=[[0,0.5],[1,0.5]];portConstraint=eastwest;rotatable=0;whiteSpace=wrap;html=1;fontSize=16;" parent="5EYDZL1ktErVGbTyCt4M-11" vertex="1">
          <mxGeometry y="80" width="170" height="50" as="geometry" />
        </mxCell>
        <mxCell id="5EYDZL1ktErVGbTyCt4M-13" value="Transactional Records about Sales &amp;amp; Orders" style="text;html=1;align=center;verticalAlign=middle;whiteSpace=wrap;rounded=0;" parent="1" vertex="1">
          <mxGeometry x="107.5" y="210" width="155" height="30" as="geometry" />
        </mxCell>
        <mxCell id="5EYDZL1ktErVGbTyCt4M-17" value="erp_cust_az12" style="swimlane;fontStyle=0;childLayout=stackLayout;horizontal=1;startSize=30;horizontalStack=0;resizeParent=1;resizeParentMax=0;resizeLast=0;collapsible=1;marginBottom=0;whiteSpace=wrap;html=1;rounded=1;fillColor=#fff2cc;strokeColor=#d6b656;fontSize=18;" parent="1" vertex="1">
          <mxGeometry x="782.5" y="334" width="170" height="80" as="geometry" />
        </mxCell>
        <mxCell id="5EYDZL1ktErVGbTyCt4M-18" value="cid" style="text;strokeColor=none;fillColor=none;align=left;verticalAlign=middle;spacingLeft=4;spacingRight=4;overflow=hidden;points=[[0,0.5],[1,0.5]];portConstraint=eastwest;rotatable=0;whiteSpace=wrap;html=1;fontSize=16;" parent="5EYDZL1ktErVGbTyCt4M-17" vertex="1">
          <mxGeometry y="30" width="170" height="50" as="geometry" />
        </mxCell>
        <mxCell id="5EYDZL1ktErVGbTyCt4M-20" value="Extra Customer Information (BirthDate)" style="text;html=1;align=center;verticalAlign=middle;whiteSpace=wrap;rounded=0;" parent="1" vertex="1">
          <mxGeometry x="790" y="299" width="155" height="30" as="geometry" />
        </mxCell>
        <mxCell id="5EYDZL1ktErVGbTyCt4M-23" style="edgeStyle=orthogonalEdgeStyle;rounded=0;orthogonalLoop=1;jettySize=auto;html=1;entryX=0;entryY=0.5;entryDx=0;entryDy=0;" parent="1" source="5EYDZL1ktErVGbTyCt4M-12" target="5EYDZL1ktErVGbTyCt4M-9" edge="1">
          <mxGeometry relative="1" as="geometry" />
        </mxCell>
        <mxCell id="5EYDZL1ktErVGbTyCt4M-24" style="edgeStyle=orthogonalEdgeStyle;rounded=0;orthogonalLoop=1;jettySize=auto;html=1;entryX=0;entryY=0.5;entryDx=0;entryDy=0;" parent="1" source="5EYDZL1ktErVGbTyCt4M-14" target="5EYDZL1ktErVGbTyCt4M-4" edge="1">
          <mxGeometry relative="1" as="geometry" />
        </mxCell>
        <mxCell id="5EYDZL1ktErVGbTyCt4M-25" style="edgeStyle=orthogonalEdgeStyle;rounded=0;orthogonalLoop=1;jettySize=auto;html=1;entryX=1;entryY=0.5;entryDx=0;entryDy=0;" parent="1" source="5EYDZL1ktErVGbTyCt4M-18" target="5EYDZL1ktErVGbTyCt4M-21" edge="1">
          <mxGeometry relative="1" as="geometry" />
        </mxCell>
        <mxCell id="5EYDZL1ktErVGbTyCt4M-28" value="Location of Customers (Country)" style="text;html=1;align=center;verticalAlign=middle;whiteSpace=wrap;rounded=0;" parent="1" vertex="1">
          <mxGeometry x="790" y="440" width="155" height="30" as="geometry" />
        </mxCell>
        <mxCell id="5EYDZL1ktErVGbTyCt4M-29" style="edgeStyle=orthogonalEdgeStyle;rounded=0;orthogonalLoop=1;jettySize=auto;html=1;entryX=1;entryY=0.5;entryDx=0;entryDy=0;" parent="1" source="5EYDZL1ktErVGbTyCt4M-27" target="5EYDZL1ktErVGbTyCt4M-21" edge="1">
          <mxGeometry relative="1" as="geometry" />
        </mxCell>
        <mxCell id="5EYDZL1ktErVGbTyCt4M-30" value="erp_px_cat_g1v2" style="swimlane;fontStyle=0;childLayout=stackLayout;horizontal=1;startSize=30;horizontalStack=0;resizeParent=1;resizeParentMax=0;resizeLast=0;collapsible=1;marginBottom=0;whiteSpace=wrap;html=1;rounded=1;fillColor=#fff2cc;strokeColor=#d6b656;fontSize=18;" parent="1" vertex="1">
          <mxGeometry x="782.5" y="180" width="170" height="80" as="geometry" />
        </mxCell>
        <mxCell id="5EYDZL1ktErVGbTyCt4M-31" value="id" style="text;strokeColor=none;fillColor=none;align=left;verticalAlign=middle;spacingLeft=4;spacingRight=4;overflow=hidden;points=[[0,0.5],[1,0.5]];portConstraint=eastwest;rotatable=0;whiteSpace=wrap;html=1;fontSize=16;" parent="5EYDZL1ktErVGbTyCt4M-30" vertex="1">
          <mxGeometry y="30" width="170" height="50" as="geometry" />
        </mxCell>
        <mxCell id="5EYDZL1ktErVGbTyCt4M-34" value="" style="rounded=1;whiteSpace=wrap;html=1;fillColor=none;dashed=1;dashPattern=1 2;" parent="1" vertex="1">
          <mxGeometry x="60" y="130" width="600" height="390" as="geometry" />
        </mxCell>
        <mxCell id="5EYDZL1ktErVGbTyCt4M-32" value="Product Categories" style="text;html=1;align=center;verticalAlign=middle;whiteSpace=wrap;rounded=0;" parent="1" vertex="1">
          <mxGeometry x="790" y="150" width="155" height="30" as="geometry" />
        </mxCell>
        <mxCell id="5EYDZL1ktErVGbTyCt4M-33" style="edgeStyle=orthogonalEdgeStyle;rounded=0;orthogonalLoop=1;jettySize=auto;html=1;entryX=1;entryY=0.5;entryDx=0;entryDy=0;" parent="1" source="5EYDZL1ktErVGbTyCt4M-31" target="5EYDZL1ktErVGbTyCt4M-9" edge="1">
          <mxGeometry relative="1" as="geometry" />
        </mxCell>
        <mxCell id="5EYDZL1ktErVGbTyCt4M-35" value="&lt;font style=&quot;font-size: 21px;&quot;&gt;&lt;b&gt;CRM&lt;/b&gt;&lt;/font&gt;" style="rounded=1;whiteSpace=wrap;html=1;fillColor=#dae8fc;strokeColor=#6c8ebf;" parent="1" vertex="1">
          <mxGeometry x="315" y="115" width="90" height="40" as="geometry" />
        </mxCell>
        <mxCell id="5EYDZL1ktErVGbTyCt4M-39" value="" style="rounded=1;whiteSpace=wrap;html=1;fillColor=none;dashed=1;dashPattern=1 2;" parent="1" vertex="1">
          <mxGeometry x="747.5" y="130" width="240" height="480" as="geometry" />
        </mxCell>
        <mxCell id="5EYDZL1ktErVGbTyCt4M-37" value="&lt;font style=&quot;font-size: 21px;&quot;&gt;&lt;b&gt;ERP&lt;/b&gt;&lt;/font&gt;" style="rounded=1;whiteSpace=wrap;html=1;fillColor=#fff2cc;strokeColor=#d6b656;" parent="1" vertex="1">
          <mxGeometry x="822.5" y="110" width="90" height="40" as="geometry" />
        </mxCell>
        <mxCell id="9OktJo-5ms2KUaf_EzRA-1" value="&lt;b&gt;PRODUCT&lt;/b&gt;" style="text;html=1;strokeColor=#b85450;fillColor=#f8cecc;align=center;verticalAlign=middle;whiteSpace=wrap;overflow=hidden;fontSize=16;" parent="1" vertex="1">
          <mxGeometry x="797.5" y="260" width="140" height="25" as="geometry" />
        </mxCell>
        <mxCell id="9OktJo-5ms2KUaf_EzRA-3" value="&lt;b&gt;SALES&lt;/b&gt;" style="text;html=1;strokeColor=#9673a6;fillColor=#e1d5e7;align=center;verticalAlign=middle;whiteSpace=wrap;overflow=hidden;fontSize=16;" parent="1" vertex="1">
          <mxGeometry x="115" y="375" width="140" height="25" as="geometry" />
        </mxCell>
        <mxCell id="9OktJo-5ms2KUaf_EzRA-4" value="&lt;b&gt;CUSTOMER&lt;/b&gt;" style="text;html=1;strokeColor=#82b366;fillColor=#d5e8d4;align=center;verticalAlign=middle;whiteSpace=wrap;overflow=hidden;fontSize=16;" parent="1" vertex="1">
          <mxGeometry x="797.5" y="414" width="140" height="25" as="geometry" />
        </mxCell>
        <mxCell id="9OktJo-5ms2KUaf_EzRA-5" value="&lt;b&gt;CUSTOMER&lt;/b&gt;" style="text;html=1;strokeColor=#82b366;fillColor=#d5e8d4;align=center;verticalAlign=middle;whiteSpace=wrap;overflow=hidden;fontSize=16;" parent="1" vertex="1">
          <mxGeometry x="797.5" y="555" width="140" height="25" as="geometry" />
        </mxCell>
        <mxCell id="9OktJo-5ms2KUaf_EzRA-6" value="&lt;b&gt;PRODUCT&lt;/b&gt;" style="text;html=1;strokeColor=#b85450;fillColor=#f8cecc;align=center;verticalAlign=middle;whiteSpace=wrap;overflow=hidden;fontSize=16;" parent="1" vertex="1">
          <mxGeometry x="445" y="250" width="140" height="25" as="geometry" />
        </mxCell>
        <mxCell id="Yv82gP1D9lO-zv1qOdLk-1" value="&lt;b&gt;CUSTOMER&lt;/b&gt;" style="text;html=1;strokeColor=#82b366;fillColor=#d5e8d4;align=center;verticalAlign=middle;whiteSpace=wrap;overflow=hidden;fontSize=16;" vertex="1" parent="1">
          <mxGeometry x="445" y="430" width="140" height="25" as="geometry" />
        </mxCell>
      </root>
    </mxGraphModel>
  </diagram>
</mxfile>
